<?xml version="1.0" encoding="UTF-8"?>
<svg id="Layer_2" data-name="Layer 2" xmlns="http://www.w3.org/2000/svg" xmlns:xlink="http://www.w3.org/1999/xlink" viewBox="0 0 700.77 130.07">
  <defs>
    <style>
      .cls-1 {
        fill: #fff;
      }

      .cls-2 {
        fill: url(#Gradiente_sem_nome_2);
      }
    </style>
    <linearGradient id="Gradiente_sem_nome_2" data-name="Gradiente sem nome 2" x1="13.96" y1="91.39" x2="162.33" y2="12.84" gradientUnits="userSpaceOnUse">
      <stop offset="0" stop-color="#2fb9f5"/>
      <stop offset=".39" stop-color="#1dd0d9"/>
      <stop offset=".74" stop-color="#12dfc8"/>
      <stop offset="1" stop-color="#0ee5c2"/>
    </linearGradient>
  </defs>
  <g id="Camada_1" data-name="Camada 1">
    <path class="cls-2" d="M135.24,35.4h-9.95l15.2-26.32c1.08-1.87,1.08-4.18,0-6.05s-3.08-3.03-5.24-3.03H39.91c-2.16,0-4.16,1.15-5.24,3.03s-1.08,4.18,0,6.05l6.4,11.09H6.05c-2.16,0-4.16,1.15-5.24,3.03-1.08,1.87-1.08,4.18,0,6.05L48.47,111.8c1.08,1.87,3.08,3.03,5.24,3.03s4.16-1.15,5.24-3.03l7.29-12.62,16.08,27.85c1.08,1.87,3.08,3.03,5.24,3.03s4.16-1.15,5.24-3.03l47.66-82.56c1.08-1.87,1.08-4.18,0-6.05s-3.08-3.03-5.24-3.03Zm-68.99,39.57l-6.99,12.11-3.63,6.28c-.85,1.47-2.97,1.47-3.82,0L18.45,35.58c-.85-1.47,.21-3.31,1.91-3.31h26.42c.79,0,1.52,.42,1.91,1.1l1.17,2.02,6.99,12.11,11.99,20.76c.39,.68,.39,1.52,0,2.21l-2.59,4.49Zm19.42,33.64l-11.79-20.43c-.39-.68-.39-1.52,0-2.2l2.59-4.49,6.99-12.11,11.99-20.76c.39-.68,1.12-1.1,1.91-1.1h23.59c1.69,0,2.75,1.83,1.91,3.3l-33.37,57.79c-.85,1.47-2.96,1.47-3.81,0Zm-17-64.65h15.61c.86,0,1.4,.93,.97,1.67l-7.8,13.51c-.43,.74-1.5,.74-1.93,0l-7.8-13.51c-.43-.74,.11-1.67,.97-1.67Zm43.27-9.65c-.39,.68-1.12,1.1-1.9,1.1h-44.92c-.79,0-1.51-.42-1.9-1.1l-1.17-2.03-6.99-12.11-2.75-4.76c-.85-1.47,.21-3.3,1.9-3.3H120.94c1.69,0,2.75,1.83,1.9,3.3l-10.91,18.89Z"/>
    <g>
      <path class="cls-1" d="M239.97,35.65h-10.43c-1.69,0-3.04,.8-3.65,2.09l-22.31,40.71-22.64-40.76c-.38-.65-.82-1.14-1.33-1.47-.59-.39-1.34-.57-2.29-.57h-10.03c-2.13,0-2.9,1.14-3.16,1.82-.25,.63-.4,1.66,.32,3.06l26.42,46.89c1.52,2.75,3.09,4.57,4.8,5.55,1.67,.96,3.74,1.45,6.17,1.45h4.62c2.08,0,3.94-.5,5.54-1.48,1.6-.98,3.11-2.78,4.63-5.52l26.14-46.97c.68-1.33,.53-2.35,.28-2.99-.21-.55-.95-1.82-3.08-1.82Z"/>
      <path class="cls-1" d="M265.28,35.65h-8.6c-2.37,0-3.9,1.49-3.9,3.79v51.19c0,2.3,1.53,3.79,3.9,3.79h8.6c2.32,0,3.82-1.49,3.82-3.79V39.44c0-2.3-1.5-3.79-3.82-3.79Z"/>
      <path class="cls-1" d="M346.79,35.65h-40.36c-4.19,0-7.83,.4-10.81,1.2-3.13,.84-5.73,2.21-7.75,4.07-2.04,1.88-3.54,4.32-4.47,7.26-.88,2.79-1.33,6.2-1.33,10.15v13.42c0,3.94,.45,7.37,1.33,10.18,.93,2.97,2.43,5.42,4.47,7.3,2.02,1.87,4.64,3.22,7.77,4.03,2.97,.77,6.6,1.16,10.79,1.16h32.16c3.76,0,6.73-1.12,8.83-3.34,2.09-2.21,3.11-5.7,3.11-10.67v-18.18c0-2.72-1.71-4.41-4.46-4.41h-33.19c-2.32,0-3.82,1.52-3.82,3.87v5.85c0,2.35,1.5,3.87,3.82,3.87h22.21v5.27c0,1.83-.4,2.3-.42,2.32-.21,.24-.76,.37-1.49,.37h-26.27c-1.89,0-3.45-.15-4.63-.45-.97-.24-1.73-.63-2.25-1.16-.53-.54-.92-1.32-1.18-2.33-.3-1.2-.45-2.78-.45-4.69v-11.24c0-1.9,.15-3.46,.45-4.64,.25-.99,.65-1.76,1.18-2.3,.52-.53,1.28-.92,2.25-1.16,1.18-.3,2.74-.45,4.63-.45h39.88c2.32,0,3.82-1.52,3.82-3.87v-7.65c0-2.3-1.5-3.79-3.82-3.79Z"/>
      <path class="cls-1" d="M376.08,35.65h-8.6c-2.37,0-3.9,1.49-3.9,3.79v51.19c0,2.3,1.53,3.79,3.9,3.79h8.6c2.32,0,3.82-1.49,3.82-3.79V39.44c0-2.3-1.5-3.79-3.82-3.79Z"/>
      <path class="cls-1" d="M450.43,79.19h-32.24c-1.9,0-3.45-.15-4.63-.44-.97-.24-1.73-.63-2.25-1.16-.53-.54-.92-1.32-1.18-2.33-.3-1.2-.46-2.78-.46-4.69v-31.14c0-2.3-1.5-3.79-3.82-3.79h-8.6c-2.37,0-3.9,1.49-3.9,3.79v32.31c0,3.94,.45,7.37,1.33,10.18,.93,2.97,2.43,5.42,4.47,7.3,2.02,1.87,4.64,3.22,7.77,4.03,2.96,.77,6.59,1.16,10.79,1.16h32.72c2.32,0,3.82-1.49,3.82-3.79v-7.65c0-2.3-1.5-3.79-3.82-3.79Z"/>
      <path class="cls-1" d="M512.81,42.64h0c-1.53-2.7-3.1-4.49-4.82-5.5-1.7-.99-3.76-1.49-6.14-1.49h-4.7c-2.09,0-3.96,.51-5.57,1.53-1.58,1-3.08,2.78-4.6,5.46l-26.14,46.97c-.68,1.33-.53,2.36-.28,2.98,.27,.68,1.03,1.83,3.16,1.83h10.35c1.61,0,2.91-.74,3.65-2.09l4.9-8.99h34.97l5.03,8.96c.67,1.35,2,2.13,3.67,2.13h10.11c2.13,0,2.86-1.27,3.08-1.82,.36-.91,.26-1.91-.32-3.06l-26.35-46.9Zm-2.53,27.51h-20.38l10.13-18.53,10.25,18.53Z"/>
      <path class="cls-1" d="M616.79,35.65h-8.36c-2.32,0-3.82,1.49-3.82,3.79v38.01l-28.28-36.36c-.8-1.07-1.51-1.92-2.16-2.58-.73-.75-1.52-1.35-2.34-1.79-.86-.45-1.85-.75-2.95-.89-.93-.11-2.09-.17-3.44-.17h-7.01c-2.98,0-5.29,.76-6.84,2.25-1.61,1.54-2.39,4.14-2.39,7.93v44.79c0,2.3,1.53,3.79,3.9,3.79h8.36c2.32,0,3.82-1.49,3.82-3.79V52.62l28.36,36.38c.87,1.14,1.62,2.01,2.3,2.68,.76,.75,1.58,1.34,2.41,1.75,.84,.41,1.8,.69,2.84,.82,.91,.12,2,.17,3.33,.17h6.85c2.98,0,5.28-.76,6.84-2.25,1.61-1.54,2.39-4.13,2.39-7.93V39.44c0-2.3-1.5-3.79-3.82-3.79Z"/>
      <path class="cls-1" d="M696.87,35.65h-62.17c-2.37,0-3.9,1.49-3.9,3.79v7.65c0,2.35,1.53,3.87,3.9,3.87h22.92v39.68c0,2.3,1.5,3.79,3.82,3.79h8.68c2.32,0,3.82-1.49,3.82-3.79V50.95h22.93c2.37,0,3.9-1.52,3.9-3.87v-7.65c0-2.3-1.53-3.79-3.9-3.79Z"/>
    </g>
  </g>
</svg>